<?xml version="1.0" standalone="no"?>
<!DOCTYPE svg PUBLIC "-//W3C//DTD SVG 20010904//EN"
 "http://www.w3.org/TR/2001/REC-SVG-20010904/DTD/svg10.dtd">
<svg version="1.0" xmlns="http://www.w3.org/2000/svg"
 width="537.000000pt" height="273.000000pt" viewBox="0 0 537.000000 273.000000"
 preserveAspectRatio="xMidYMid meet">

<g transform="translate(0.000000,273.000000) scale(0.100000,-0.100000)"
fill="#000000" stroke="none">
<path d="M2570 2195 l-165 -166 -63 2 -63 2 -87 -86 -87 -87 158 -158 157
-157 0 -76 0 -75 85 -84 86 -83 163 162 164 162 77 -2 77 -2 86 86 87 87 -168
168 -167 167 0 70 0 70 -83 83 c-45 45 -85 82 -87 82 -3 0 -79 -74 -170 -165z
m241 59 l66 -65 -183 -187 -184 -187 -70 70 -70 70 182 182 c101 101 185 183
188 183 2 0 34 -30 71 -66z m69 -136 c0 -30 -1 -31 -17 -16 -13 14 -14 20 -3
32 18 22 20 20 20 -16z m140 -213 l185 -185 -70 -70 -70 -70 -187 187 -188
188 67 67 c37 38 70 68 73 68 3 0 88 -83 190 -185z m-653 88 c-16 -16 -18 -16
-34 0 -16 16 -15 17 17 17 32 0 33 -1 17 -17z m98 -173 l180 -180 -70 -70 -70
-70 -179 179 -179 179 64 71 c35 38 66 70 69 71 3 0 86 -81 185 -180z m278 42
l67 -68 -70 -69 -70 -70 -72 73 -73 72 65 65 c35 36 69 65 75 65 6 0 41 -30
78 -68z m156 -156 c35 -35 62 -68 60 -72 -2 -5 -86 -90 -187 -189 l-182 -179
-65 64 c-36 36 -65 67 -65 71 0 10 355 369 365 369 6 0 39 -29 74 -64z m96
-134 c-46 -4 -53 2 -30 28 l18 20 25 -22 24 -23 -37 -3z m-521 -80 c15 -18 15
-20 -4 -37 -20 -18 -20 -18 -20 18 0 43 1 43 24 19z"/>
</g>
</svg>
